<?xml version="1.0" standalone="no"?>
<!DOCTYPE svg PUBLIC "-//W3C//DTD SVG 20010904//EN"
 "http://www.w3.org/TR/2001/REC-SVG-20010904/DTD/svg10.dtd">
<svg version="1.0" xmlns="http://www.w3.org/2000/svg"
 width="700.000000pt" height="700.000000pt" viewBox="0 0 700.000000 700.000000"
 preserveAspectRatio="xMidYMid meet">
<metadata>
Created by potrace 1.14, written by Peter Selinger 2001-2017
</metadata>
<g transform="translate(0.000000,700.000000) scale(0.100000,-0.100000)"
fill="#000000" stroke="none">
<path d="M3557 6936 c-8 -8 -46 -73 -86 -144 -77 -140 -123 -194 -186 -217
-22 -8 -107 -26 -190 -41 -82 -14 -156 -31 -164 -39 -24 -24 -4 -57 103 -172
104 -111 137 -160 150 -218 6 -27 -4 -43 -94 -155 -157 -194 -264 -313 -383
-423 -60 -56 -115 -114 -123 -129 -24 -45 -18 -86 17 -119 l30 -28 -31 -40
c-37 -46 -44 -99 -16 -130 10 -11 38 -28 62 -38 24 -10 44 -20 44 -23 0 -8
-240 -251 -327 -331 -124 -114 -150 -191 -85 -251 32 -31 75 -53 120 -63 17
-3 32 -8 32 -9 0 -1 -38 -40 -84 -87 -103 -103 -123 -149 -89 -208 l21 -36
-163 -160 c-177 -174 -205 -216 -191 -290 13 -68 110 -133 230 -153 l38 -7
-110 -103 c-141 -131 -187 -216 -152 -282 8 -16 -12 -39 -142 -162 -232 -218
-283 -272 -308 -322 -62 -130 -16 -229 135 -291 31 -12 56 -26 56 -31 -1 -5
-17 -31 -38 -58 -40 -52 -72 -133 -73 -181 0 -55 -93 -167 -265 -324 -188
-170 -255 -245 -296 -326 -61 -124 -43 -217 54 -282 107 -72 266 -98 532 -90
195 6 356 24 875 93 184 24 368 47 408 51 66 5 72 4 72 -13 0 -10 -11 -116
-25 -234 -14 -118 -25 -244 -25 -280 0 -233 148 -401 415 -471 102 -27 345
-37 466 -20 302 44 475 182 515 412 13 75 12 96 -16 346 -17 146 -29 267 -28
268 3 2 313 -37 791 -99 728 -95 1037 -69 1161 98 16 21 21 42 21 94 0 128
-73 228 -334 462 -103 92 -174 163 -193 195 -17 28 -94 114 -171 192 -91 92
-135 144 -126 147 8 2 45 12 83 20 37 9 91 28 120 42 135 68 168 156 105 282
-24 49 -56 85 -152 174 -67 62 -161 150 -208 196 l-87 84 5 58 c8 80 -18 121
-154 249 -59 55 -105 102 -102 104 2 2 29 9 59 16 120 26 200 95 200 173 0 78
-32 119 -248 316 l-112 104 20 25 c46 58 18 129 -93 234 -60 58 -77 79 -62 79
11 0 48 13 82 29 91 44 117 107 72 181 -12 19 -114 126 -228 238 l-206 203 42
15 c49 18 93 65 93 99 0 12 -15 45 -34 72 -32 47 -33 50 -15 61 10 7 26 23 35
37 31 47 7 91 -104 195 -53 50 -137 135 -186 188 -124 136 -336 401 -336 420
0 31 45 90 158 211 61 66 112 125 112 131 0 30 -42 47 -186 74 -158 30 -226
57 -269 107 -12 15 -53 85 -90 156 -37 70 -74 136 -83 146 -18 21 -46 22 -65
3z m-220 -2022 c98 -47 157 -142 157 -254 -1 -114 -59 -207 -164 -262 -61 -31
-174 -32 -242 -1 -172 79 -221 306 -97 447 91 103 223 130 346 70z m-454
-1261 c154 -73 244 -240 218 -404 -15 -90 -52 -159 -121 -222 -80 -74 -147
-100 -261 -101 -79 -1 -90 2 -161 37 -87 43 -142 98 -185 186 -25 50 -28 67
-28 156 0 87 3 107 27 157 29 63 93 137 145 169 107 66 252 75 366 22z m2340
-781 c82 -40 157 -120 188 -200 18 -44 23 -77 24 -147 0 -80 -4 -97 -31 -155
-161 -341 -648 -279 -726 93 -37 175 76 365 255 429 83 30 206 21 290 -20z
m-1168 -387 c76 -37 143 -104 181 -180 26 -55 29 -69 29 -165 0 -92 -3 -112
-26 -160 -36 -76 -97 -141 -166 -178 -329 -175 -685 162 -530 502 43 93 120
162 220 198 81 29 215 21 292 -17z"/>
</g>
</svg>
